<?xml version="1.0" encoding="utf-8"?>

<!DOCTYPE svg PUBLIC "-//W3C//DTD SVG 1.0//EN" "http://www.w3.org/TR/2001/REC-SVG-20010904/DTD/svg10.dtd">
<!-- Uploaded to: SVG Repo, www.svgrepo.com, Generator: SVG Repo Mixer Tools -->
<svg version="1.0" id="Layer_1" xmlns="http://www.w3.org/2000/svg" xmlns:xlink="http://www.w3.org/1999/xlink" 
	 width="800px" height="800px" viewBox="0 0 64 64" enable-background="new 0 0 64 64" xml:space="preserve">
<g>
	<path fill="#F9EBB2" d="M56,56H8v-1.07l12-6.855V32c0-7.496,4.492-15.586,12-21.992C39.508,16.414,44,24.504,44,32v16.074
		l11.824,6.754c0.062,0.039,0.121,0.078,0.176,0.117V56z"/>
	<g>
		<path fill="#394240" d="M60,48l-8-4.57c0-4.027,0-8.047,0-11.43c0-12-8-24-20-32C20,8,12,20,12,32c0,3.383,0,7.402,0,11.43L4,48
			c-2.426,1.27-4,2.977-4,5.188V60c0,2.211,1.789,4,4,4h56c2.211,0,4-1.789,4-4v-6.812C64,50.977,62.125,49.375,60,48z M56,56H8
			v-1.07l12-6.855V32c0-7.496,4.492-15.586,12-21.992C39.508,16.414,44,24.504,44,32v16.074l11.824,6.754
			c0.062,0.039,0.121,0.078,0.176,0.117V56z"/>
		<circle fill="#394240" cx="32" cy="28" r="4"/>
	</g>
</g>
</svg>